<svg width="409" height="403" viewBox="0 0 409 403" fill="none" xmlns="http://www.w3.org/2000/svg">
<rect x="88" y="56" width="234" height="292" rx="30" fill="url(#paint0_linear_2_2)" stroke="white" stroke-width="20" stroke-linejoin="round"/>
<path d="M205 108C256.915 108 299 149.861 299 201.5C299 253.139 256.915 295 205 295C153.085 295 111 253.139 111 201.5C111 149.861 153.085 108 205 108ZM135.202 213C140.382 246.765 169.736 272.634 205.17 272.634C240.605 272.634 269.958 246.765 275.139 213H241.381C236.664 228.623 222.161 240 205 240C187.839 240 173.337 228.623 168.62 213H135.202ZM205 181C193.402 181 184 190.402 184 202C184 213.598 193.402 223 205 223C216.598 223 226 213.598 226 202C226 190.402 216.598 181 205 181ZM205.17 132C170.309 132 141.336 157.038 135.474 190H168.937C173.96 174.894 188.207 164 205 164C221.793 164 236.041 174.894 241.064 190H274.867C269.005 157.038 240.031 132 205.17 132Z" fill="white"/>
<defs>
<linearGradient id="paint0_linear_2_2" x1="137.5" y1="32.5" x2="275" y2="379" gradientUnits="userSpaceOnUse">
<stop/>
<stop offset="0.302642" stop-color="#400000"/>
<stop offset="0.432802" stop-color="#600000"/>
<stop offset="0.542354" stop-color="#800000"/>
<stop offset="0.675444" stop-color="#BF0000"/>
<stop offset="1" stop-color="#FF0000"/>
</linearGradient>
</defs>
</svg>
